<svg version="1.0" xmlns="http://www.w3.org/2000/svg" viewBox="0 0 100 108">
  <style>path, .svg_filled { fill:#1f8ee6; } .svg_stroked { stroke:#1f8ee6; } </style><path fill="#1f8ee6" d="M28.854,35.492c3.449,0,6.253,2.792,6.253,6.241c0,3.481-2.805,6.273-6.253,6.273c-3.448,0-6.255-2.792-6.255-6.273
	C22.6,38.285,25.406,35.492,28.854,35.492z"/>
    <path fill="#1f8ee6" d="M74.798,38.375l-7.704-0.669c-1.444-0.404-2.884,0.633-3.213,2.249c-0.346,1.652,0.562,3.308,2.01,3.674l7.623,1.069
		c1.541,0.432,3.077-0.675,3.441-2.398C77.311,40.536,76.341,38.77,74.798,38.375z"/>
    <path fill="#1f8ee6" d="M85.354,14.644C76.309,5.582,63.8,0,49.998,0c-13.795,0-26.304,5.582-35.35,14.644C5.6,23.679,0.001,36.193,0.001,49.992
      c0,13.83,5.599,26.342,14.647,35.378c4.76,4.769,10.486,8.561,16.847,11.097c-0.265,1.43-0.395,2.737-0.395,3.805
      c0,2.694,2.022,7.727,6.892,7.727l0.478,0c0.145,0,0.288,0,0.429,0c3.143,0,5.298-0.117,6.955-2.906
      c2.61,0.619,6.058-1.027,6.238-1.115c0.833-0.472,1.59-1.019,2.253-1.627c3.496-0.786,6.105-2.196,8-3.875
      c8.846-2.244,16.756-6.842,23.009-13.108c9.047-9.036,14.647-21.548,14.647-35.378C100.001,36.193,94.402,23.679,85.354,14.644z
       M50.715,100.434c-1.127,0.484-2.317,0.89-3.548,1.209c0.107-0.566,0.259-1.156,0.438-1.689c0.11-0.328,0.236-0.653,0.394-0.962
      c0.079-0.153,0.164-0.304,0.268-0.442c0.096-0.127,0.209-0.251,0.345-0.336c0.077-0.047,0.159-0.076,0.243-0.108
      c0.079-0.031,0.157-0.062,0.23-0.105c0.096-0.056,0.181-0.13,0.211-0.24c0.031-0.116,0.009-0.239-0.007-0.356l-0.296-2.029
      c-0.021-0.157-0.115-0.295-0.254-0.371c-0.054-0.03-1.331-0.72-2.649-0.075c-1.184,0.579-1.964,2.01-2.318,4.253
      c-0.024,0.15-0.054,0.282-0.08,0.423c-0.835,4.385-3.128,4.332-4.373,4.299l-0.297-0.006c-1.849,0-2.787-1.416-2.787-4.21
      l-0.001-0.515c-0.001-0.383-0.001-0.74,0.005-1.089c0.029-1.817,0.244-3.306,1.565-5.708c0.898-1.633,2.301-3.685,4.518-6.565
      c0.179-0.234,4.065-5.406,5.042-13.396c0.086-0.7,0.157-1.414,0.193-2.157c0.052-1.07,0.12-2.001,0.2-2.826
      c0.522-5.389,1.601-5.89,2.841-5.89c1.522,0,2.166,1.712,2.2,5.849c0.001,0.116,0.003,0.227,0.003,0.347
      c-0.002,0.038-0.112,2.184-0.482,4.701c-0.276,1.88-0.697,3.967-1.33,5.539c-1.658,0.376-2.862,0.975-2.915,1.002
      c-0.128,0.064-0.223,0.182-0.259,0.321l-0.881,3.404c-0.047,0.181,0.011,0.373,0.15,0.498c0.139,0.125,0.336,0.161,0.511,0.096
      c2.6-0.982,5.473-1.844,7.064-0.787c0.904,0.599,1.4,1.839,1.472,3.686c0.037,0.943-0.167,1.646-0.605,2.089
      c-0.503,0.508-1.215,0.592-1.68,0.592c-2.413-1.01-5.028-1.1-5.14-1.104c-0.223-0.002-0.433,0.143-0.496,0.362l-0.98,3.408
      c-0.039,0.136-0.019,0.282,0.056,0.402c0.074,0.12,0.196,0.203,0.335,0.229c3.643,0.667,5.044,1.186,5.594,1.797
      c0.3,0.333,0.351,0.693,0.366,1.119c0.048,1.351-1.034,3.799-2.211,4.89C51.151,100.181,50.932,100.341,50.715,100.434z
       M57.646,92.582c1.341-1.06,2.08-2.6,2.484-3.887c0.449,0.23,0.75,0.555,0.896,0.97c0.274,0.781,0.033,1.896-0.667,3.201
      c-0.188,0.351-0.403,0.713-0.657,1.09c-0.571,0.844-1.356,1.387-2.034,1.727c0.193-0.812,0.238-1.575,0.146-2.286
      C57.778,93.118,57.726,92.845,57.646,92.582z M66.418,90.931c0.013-0.13,0.032-0.262,0.039-0.39
      c0.145-2.565-0.454-4.569-1.779-5.955c-1.556-1.627-3.693-1.924-4.623-1.973c-0.82-2.469-2.367-4.067-4.507-4.663
      c0.448-1.224,0.909-3.143,1.176-6.091c6.675-1.34,13.099-4.693,18.521-10.06c1.159-1.137,1.33-2.946,0.462-3.897
      c-0.869-0.956-2.337-0.873-3.344,0.135c-4.533,4.479-9.859,7.364-15.415,8.672c0.001-0.154,0.003-0.301,0.003-0.459
      c0.013-0.187,0.29-4.598-2.207-7.274c-1.212-1.3-2.861-1.96-4.861-1.96c-0.002,0-0.005,0-0.008,0
      c-0.076-0.007-1.841-0.136-3.575,1.459c-1.781,1.638-2.833,4.429-3.164,8.254c-5.587-1.298-10.944-4.189-15.5-8.691
      c-1.006-1.007-2.474-1.091-3.344-0.135c-0.867,0.951-0.682,2.761,0.472,3.897c5.257,5.205,11.46,8.507,17.918,9.924
      c-0.551,3.097-1.914,8.61-4.957,11.654c-1.995,1.996-3.511,4.656-4.586,7.375c-15.98-6.624-27.223-22.371-27.223-40.76
      c0-24.338,19.739-44.088,44.091-44.088c24.346,0,44.075,19.75,44.075,44.088C94.085,68.553,82.633,84.418,66.418,90.931z"/></svg>